<svg xmlns="http://www.w3.org/2000/svg" width="94" height="122" viewBox="0 0 94 122">
  <g id="play" data-name="Polygon 2" transform="translate(86 8) rotate(90)" fill="#fff" stroke-linecap="round" stroke-linejoin="round" opacity="1">
    <path d="M 113.5539855957031 82 L 106 82 L 0 82 L -7.553983211517334 82 L -3.308500051498413 75.75192260742188 L 49.69150161743164 -2.248079538345337 L 53 -7.117179393768311 L 56.30849838256836 -2.248079538345337 L 109.3085021972656 75.75192260742188 L 113.5539855957031 82 Z" stroke="none"/>
    <path d="M 53 7.62939453125e-06 L 0 78 L 106 78 L 53 7.62939453125e-06 M 53 -7.999992370605469 C 55.64982604980469 -7.999992370605469 58.12773895263672 -6.687889099121094 59.61700057983398 -4.496147155761719 L 112.6169967651367 73.50385284423828 C 114.2822799682617 75.95463562011719 114.4565658569336 79.12513732910156 113.0699768066406 81.74372100830078 C 111.6833877563477 84.36228942871094 108.963020324707 86 106 86 L 0 86 C -2.963020324707031 86 -5.683387756347656 84.36228942871094 -7.069976806640625 81.74372100830078 C -8.456565856933594 79.12513732910156 -8.282279968261719 75.95463562011719 -6.616996765136719 73.50385284423828 L 46.38299942016602 -4.496147155761719 C 47.87226104736328 -6.687889099121094 50.35017395019531 -7.999992370605469 53 -7.999992370605469 Z" stroke="none" fill="#fff"/>
  </g>
</svg>
